# This file uses centimeters as units for non-parametric coordinates.

mtllib ToallasOBJ.mtl
g default
v -0.000000 -3.159035 -1.766208
v -0.000000 -3.159035 1.766208
v -0.000000 3.159014 -1.754726
v -0.000000 3.159014 1.754726
v -2.186332 -3.159097 -1.695569
v -2.044376 3.159044 -1.706966
v -2.070313 -3.159033 1.714417
v -2.062438 3.159058 1.704041
v -2.594201 3.159049 1.564212
v -2.609126 -3.159038 1.569165
v -2.950937 -3.159039 1.296767
v -2.946738 3.159055 1.285164
v -3.214350 3.159097 0.938158
v -3.258648 -3.159048 0.880521
v -3.429839 -3.159060 0.429929
v -3.411396 3.159053 0.456864
v -3.478650 -3.159029 -0.039771
v -3.468785 3.159001 -0.014407
v -3.411255 3.159010 -0.457599
v -3.428424 -3.159038 -0.435311
v -3.290600 -3.159039 -0.820205
v -3.248081 3.159009 -0.877091
v -2.943903 3.159013 -1.288073
v -2.998455 -3.159038 -1.247352
v -2.663316 -3.159051 -1.540618
v -2.588374 3.159027 -1.567304
v 2.186331 -3.159097 -1.695569
v 2.044376 3.159044 -1.706966
v 2.070312 -3.159033 1.714417
v 2.062438 3.159058 1.704041
v 2.594201 3.159049 1.564212
v 2.609126 -3.159038 1.569165
v 2.950937 -3.159039 1.296767
v 2.946737 3.159055 1.285164
v 3.214350 3.159097 0.938158
v 3.258647 -3.159048 0.880521
v 3.429839 -3.159060 0.429929
v 3.411396 3.159053 0.456864
v 3.478650 -3.159029 -0.039771
v 3.468785 3.159001 -0.014407
v 3.411255 3.159010 -0.457599
v 3.428424 -3.159038 -0.435311
v 3.290600 -3.159039 -0.820205
v 3.248081 3.159009 -0.877091
v 2.943903 3.159013 -1.288073
v 2.998456 -3.159038 -1.247352
v 2.663317 -3.159051 -1.540618
v 2.588375 3.159027 -1.567304
vt 0.020298 0.728473
vt 0.350487 0.734805
vt 0.350950 0.847627
vt 0.020798 0.849158
vt 0.020027 0.352763
vt 0.350182 0.353153
vt 0.350068 0.466975
vt 0.019911 0.467021
vt 0.019892 0.497810
vt 0.350049 0.497310
vt 0.350051 0.522116
vt 0.019893 0.521924
vt 0.019907 0.550482
vt 0.350064 0.546293
vt 0.350087 0.574986
vt 0.019931 0.577076
vt 0.350119 0.601179
vt 0.019968 0.603130
vt 0.020005 0.625127
vt 0.350162 0.625835
vt 0.350215 0.650669
vt 0.020052 0.647683
vt 0.020124 0.676234
vt 0.350289 0.678878
vt 0.350367 0.703820
vt 0.020197 0.700803
vt 0.021302 0.969843
vt 0.351425 0.960448
vt 0.020153 0.238505
vt 0.350309 0.239331
vt 0.020199 0.207717
vt 0.350354 0.208995
vt 0.020251 0.183603
vt 0.350409 0.184190
vt 0.020325 0.155044
vt 0.350474 0.160013
vt 0.020406 0.128451
vt 0.350557 0.131320
vt 0.020498 0.102397
vt 0.350645 0.105127
vt 0.020582 0.080399
vt 0.350740 0.080471
vt 0.020677 0.057844
vt 0.350846 0.055638
vt 0.020809 0.029293
vt 0.350979 0.027429
vt 0.351564 0.991434
vt 0.021431 0.997512
vt 0.020934 0.004724
vt 0.351110 0.002488
vt 0.859028 0.428195
vt 0.673786 0.436135
vt 0.673786 0.039084
vt 0.849198 0.044904
vt 0.488544 0.428195
vt 0.498374 0.044904
vt 0.894849 0.061231
vt 0.899441 0.410778
vt 0.923810 0.091850
vt 0.927837 0.377815
vt 0.949882 0.138636
vt 0.952589 0.329801
vt 0.452722 0.061231
vt 0.448131 0.410778
vt 0.423761 0.091849
vt 0.419735 0.377814
vt 0.397690 0.138636
vt 0.394983 0.329802
vt 0.446844 0.535447
vt 0.493207 0.519655
vt 0.491668 0.905325
vt 0.446347 0.889515
vt 0.667445 0.514255
vt 0.667444 0.911056
vt 0.841682 0.519655
vt 0.843221 0.905324
vt 0.888045 0.535447
vt 0.888541 0.889514
vt 0.918588 0.857965
vt 0.918345 0.567019
vt 0.416301 0.857964
vt 0.416543 0.567018
vt 0.393493 0.818729
vt 0.390619 0.613486
vt 0.941395 0.818729
vt 0.944270 0.613486
vt 0.958189 0.764312
vt 0.958176 0.660916
vt 0.376699 0.764312
vt 0.376711 0.660916
vt 0.383185 0.189284
vt 0.383305 0.286540
vt 0.964386 0.189284
vt 0.964266 0.286539
vt 0.968522 0.242079
vt 0.379050 0.242079
vt 0.371809 0.711027
vt 0.963081 0.711026
vn -0.079554 0.000641 -0.996830
vn -0.077260 0.000627 -0.997011
vn 0.000000 0.000321 -1.000000
vn 0.000000 0.000321 -1.000000
vn 0.000000 0.001745 0.999999
vn 0.000000 0.001745 0.999999
vn -0.074227 0.001730 0.997240
vn -0.074326 0.001730 0.997232
vn -0.428503 0.001822 0.903539
vn -0.074326 0.001730 0.997232
vn -0.074227 0.001730 0.997240
vn -0.428094 0.001821 0.903732
vn -0.428094 0.001821 0.903732
vn -0.719367 0.001410 0.694629
vn -0.719269 0.001411 0.694730
vn -0.428503 0.001822 0.903539
vn -0.874232 0.001549 0.485507
vn -0.719269 0.001411 0.694730
vn -0.719367 0.001410 0.694629
vn -0.873284 0.001540 0.487209
vn -0.873284 0.001540 0.487209
vn -0.969276 0.001983 0.245968
vn -0.969477 0.001982 0.245176
vn -0.874232 0.001549 0.485507
vn -0.969276 0.001983 0.245968
vn -0.999998 0.001960 -0.000566
vn -0.999997 0.001961 -0.001176
vn -0.969477 0.001982 0.245176
vn -0.970492 0.002205 -0.241122
vn -0.999997 0.001961 -0.001176
vn -0.999998 0.001960 -0.000566
vn -0.970348 0.002206 -0.241700
vn -0.970348 0.002206 -0.241700
vn -0.877141 0.002000 -0.480229
vn -0.878014 0.002003 -0.478631
vn -0.970492 0.002205 -0.241122
vn -0.739321 0.002100 -0.673350
vn -0.878014 0.002003 -0.478631
vn -0.877141 0.002000 -0.480229
vn -0.738147 0.002105 -0.674637
vn -0.450470 0.002167 -0.892789
vn -0.077260 0.000627 -0.997011
vn -0.079554 0.000641 -0.996830
vn -0.453332 0.002172 -0.891339
vn -0.738147 0.002105 -0.674637
vn -0.450470 0.002167 -0.892789
vn -0.453332 0.002172 -0.891339
vn -0.739321 0.002100 -0.673350
vn 0.079554 0.000641 -0.996830
vn 0.000000 0.000321 -1.000000
vn 0.000000 0.000321 -1.000000
vn 0.077260 0.000627 -0.997011
vn 0.000000 0.001745 0.999999
vn 0.074326 0.001730 0.997232
vn 0.074227 0.001730 0.997240
vn 0.000000 0.001745 0.999999
vn 0.428503 0.001822 0.903539
vn 0.428094 0.001821 0.903732
vn 0.074227 0.001730 0.997240
vn 0.074326 0.001730 0.997232
vn 0.428094 0.001821 0.903732
vn 0.428503 0.001822 0.903539
vn 0.719269 0.001411 0.694730
vn 0.719367 0.001410 0.694629
vn 0.874232 0.001549 0.485507
vn 0.873284 0.001540 0.487209
vn 0.719367 0.001410 0.694629
vn 0.719269 0.001411 0.694730
vn 0.873284 0.001540 0.487209
vn 0.874232 0.001549 0.485507
vn 0.969476 0.001982 0.245176
vn 0.969276 0.001983 0.245968
vn 0.969276 0.001983 0.245968
vn 0.969476 0.001982 0.245176
vn 0.999997 0.001961 -0.001176
vn 0.999998 0.001960 -0.000566
vn 0.970492 0.002205 -0.241122
vn 0.970348 0.002206 -0.241700
vn 0.999998 0.001960 -0.000566
vn 0.999997 0.001961 -0.001176
vn 0.970348 0.002206 -0.241700
vn 0.970492 0.002205 -0.241122
vn 0.878014 0.002003 -0.478631
vn 0.877141 0.002000 -0.480229
vn 0.739321 0.002100 -0.673350
vn 0.738147 0.002105 -0.674637
vn 0.877141 0.002000 -0.480229
vn 0.878014 0.002003 -0.478631
vn 0.450469 0.002167 -0.892789
vn 0.453332 0.002172 -0.891339
vn 0.079554 0.000641 -0.996830
vn 0.077260 0.000627 -0.997011
vn 0.738147 0.002105 -0.674637
vn 0.739321 0.002100 -0.673350
vn 0.453332 0.002172 -0.891339
vn 0.450469 0.002167 -0.892789
vn 0.000006 -1.000000 0.000010
vn 0.000000 -1.000000 0.000009
vn 0.000000 -1.000000 0.000009
vn 0.000006 -1.000000 0.000010
vn 0.000000 -1.000000 0.000009
vn -0.000006 -1.000000 0.000010
vn -0.000006 -1.000000 0.000010
vn 0.000000 -1.000000 0.000009
vn 0.000006 -1.000000 0.000010
vn -0.000035 -1.000000 0.000011
vn -0.000035 -1.000000 0.000011
vn 0.000006 -1.000000 0.000010
vn -0.000035 -1.000000 0.000011
vn -0.000013 -1.000000 0.000001
vn -0.000013 -1.000000 0.000001
vn -0.000035 -1.000000 0.000011
vn -0.000013 -1.000000 0.000001
vn 0.000016 -1.000000 -0.000003
vn 0.000016 -1.000000 -0.000003
vn -0.000013 -1.000000 0.000001
vn 0.000035 -1.000000 0.000011
vn -0.000006 -1.000000 0.000010
vn -0.000006 -1.000000 0.000010
vn 0.000035 -1.000000 0.000011
vn 0.000013 -1.000000 0.000001
vn 0.000035 -1.000000 0.000011
vn 0.000035 -1.000000 0.000011
vn 0.000013 -1.000000 0.000001
vn -0.000016 -1.000000 -0.000003
vn 0.000013 -1.000000 0.000001
vn 0.000013 -1.000000 0.000001
vn -0.000016 -1.000000 -0.000003
vn 0.000022 1.000000 -0.000007
vn -0.000011 1.000000 -0.000003
vn -0.000011 1.000000 -0.000003
vn 0.000022 1.000000 -0.000007
vn -0.000011 1.000000 -0.000003
vn 0.000000 1.000000 -0.000002
vn 0.000000 1.000000 -0.000002
vn -0.000011 1.000000 -0.000003
vn 0.000000 1.000000 -0.000002
vn 0.000011 1.000000 -0.000003
vn 0.000011 1.000000 -0.000003
vn 0.000000 1.000000 -0.000002
vn 0.000011 1.000000 -0.000003
vn -0.000022 1.000000 -0.000007
vn -0.000022 1.000000 -0.000007
vn 0.000011 1.000000 -0.000003
vn 0.000001 1.000000 -0.000014
vn -0.000022 1.000000 -0.000007
vn -0.000022 1.000000 -0.000007
vn 0.000001 1.000000 -0.000014
vn 0.000022 1.000000 -0.000007
vn -0.000001 1.000000 -0.000014
vn -0.000001 1.000000 -0.000014
vn 0.000022 1.000000 -0.000007
vn -0.000001 1.000000 -0.000014
vn -0.000054 1.000000 -0.000031
vn -0.000054 1.000000 -0.000031
vn -0.000001 1.000000 -0.000014
vn 0.000054 1.000000 -0.000031
vn 0.000001 1.000000 -0.000014
vn 0.000001 1.000000 -0.000014
vn 0.000054 1.000000 -0.000031
vn -0.000115 1.000000 -0.000046
vn 0.000054 1.000000 -0.000031
vn 0.000054 1.000000 -0.000031
vn -0.000115 1.000000 -0.000046
vn -0.000054 1.000000 -0.000031
vn 0.000115 1.000000 -0.000047
vn 0.000115 1.000000 -0.000047
vn -0.000054 1.000000 -0.000031
vn -0.000038 -1.000000 -0.000013
vn -0.000016 -1.000000 -0.000003
vn -0.000016 -1.000000 -0.000003
vn -0.000038 -1.000000 -0.000013
vn 0.000016 -1.000000 -0.000003
vn 0.000038 -1.000000 -0.000013
vn 0.000038 -1.000000 -0.000013
vn 0.000016 -1.000000 -0.000003
vn -0.000380 -1.000000 -0.000026
vn 0.000038 -1.000000 -0.000013
vn 0.000038 -1.000000 -0.000013
vn 0.000380 -1.000000 -0.000026
vn -0.000038 -1.000000 -0.000013
vn -0.000038 -1.000000 -0.000013
vn 0.000115 1.000000 -0.000047
vn 0.000519 1.000000 -0.000047
vn 0.000115 1.000000 -0.000047
vn -0.000115 1.000000 -0.000046
vn -0.000115 1.000000 -0.000046
vn -0.000519 1.000000 -0.000047
s off
g papel
usemtl ServitoallasSG
f 5/1/1 6/2/2 3/3/3 1/4/4
f 2/5/5 4/6/6 8/7/7 7/8/8
f 10/9/9 7/8/10 8/7/11 9/10/12
f 9/10/13 12/11/14 11/12/15 10/9/16
f 14/13/17 11/12/18 12/11/19 13/14/20
f 13/14/21 16/15/22 15/16/23 14/13/24
f 16/15/25 18/17/26 17/18/27 15/16/28
f 20/19/29 17/18/30 18/17/31 19/20/32
f 19/20/33 22/21/34 21/22/35 20/19/36
f 24/23/37 21/22/38 22/21/39 23/24/40
f 26/25/41 6/2/42 5/1/43 25/26/44
f 23/24/45 26/25/46 25/26/47 24/23/48
f 27/27/49 1/4/50 3/3/51 28/28/52
f 2/5/53 29/29/54 30/30/55 4/6/56
f 32/31/57 31/32/58 30/30/59 29/29/60
f 31/32/61 32/31/62 33/33/63 34/34/64
f 36/35/65 35/36/66 34/34/67 33/33/68
f 35/36/69 36/35/70 37/37/71 38/38/72
f 38/38/73 37/37/74 39/39/75 40/40/76
f 42/41/77 41/42/78 40/40/79 39/39/80
f 41/42/81 42/41/82 43/43/83 44/44/84
f 46/45/85 45/46/86 44/44/87 43/43/88
f 48/47/89 47/48/90 27/27/91 28/28/92
f 45/46/93 46/45/94 47/49/95 48/50/96
f 5/51/97 1/52/98 2/53/99 7/54/100
f 1/52/101 27/55/102 29/56/103 2/53/104
f 7/54/105 10/57/106 25/58/107 5/51/108
f 10/57/109 11/59/110 24/60/111 25/58/112
f 11/59/113 14/61/114 21/62/115 24/60/116
f 32/63/117 29/56/118 27/55/119 47/64/120
f 33/65/121 32/63/122 47/64/123 46/66/124
f 36/67/125 33/65/126 46/66/127 43/68/128
f 48/69/129 28/70/130 30/71/131 31/72/132
f 28/70/133 3/73/134 4/74/135 30/71/136
f 3/73/137 6/75/138 8/76/139 4/74/140
f 6/75/141 26/77/142 9/78/143 8/76/144
f 12/79/145 9/78/146 26/77/147 23/80/148
f 31/72/149 34/81/150 45/82/151 48/69/152
f 34/81/153 35/83/154 44/84/155 45/82/156
f 13/85/157 12/79/158 23/80/159 22/86/160
f 16/87/161 13/85/162 22/86/163 19/88/164
f 35/83/165 38/89/166 41/90/167 44/84/168
f 37/91/169 36/67/170 43/68/171 42/92/172
f 14/61/173 15/93/174 20/94/175 21/62/176
f 17/95/177 20/94/178 15/93/179
f 39/96/180 37/91/181 42/92/182
f 38/89/183 40/97/184 41/90/185
f 16/87/186 19/88/187 18/98/188
